<mxfile host="65bd71144e">
    <diagram id="QvLAYi6wbZDyRxPe18eP" name="Page-1">
        <mxGraphModel dx="1803" dy="2410" grid="1" gridSize="10" guides="1" tooltips="1" connect="1" arrows="1" fold="1" page="1" pageScale="1" pageWidth="850" pageHeight="1100" math="0" shadow="0">
            <root>
                <mxCell id="0"/>
                <mxCell id="1" parent="0"/>
                <mxCell id="3" value="NavigationManager" style="swimlane;fontStyle=1;align=center;verticalAlign=top;childLayout=stackLayout;horizontal=1;startSize=26;horizontalStack=0;resizeParent=1;resizeParentMax=0;resizeLast=0;collapsible=1;marginBottom=0;whiteSpace=wrap;html=1;" parent="1" vertex="1">
                    <mxGeometry x="160" y="320" width="160" height="60" as="geometry"/>
                </mxCell>
                <mxCell id="5" value="" style="line;strokeWidth=1;fillColor=none;align=left;verticalAlign=middle;spacingTop=-1;spacingLeft=3;spacingRight=3;rotatable=0;labelPosition=right;points=[];portConstraint=eastwest;strokeColor=inherit;" parent="3" vertex="1">
                    <mxGeometry y="26" width="160" height="8" as="geometry"/>
                </mxCell>
                <mxCell id="6" value="+ NavigateTo(string)" style="text;strokeColor=none;fillColor=none;align=left;verticalAlign=top;spacingLeft=4;spacingRight=4;overflow=hidden;rotatable=0;points=[[0,0.5],[1,0.5]];portConstraint=eastwest;whiteSpace=wrap;html=1;" parent="3" vertex="1">
                    <mxGeometry y="34" width="160" height="26" as="geometry"/>
                </mxCell>
                <mxCell id="cufo4_8W5I5X8OUttPSM-53" style="edgeStyle=none;html=1;endArrow=none;endFill=0;" edge="1" parent="1" source="cufo4_8W5I5X8OUttPSM-7" target="cufo4_8W5I5X8OUttPSM-11">
                    <mxGeometry relative="1" as="geometry"/>
                </mxCell>
                <mxCell id="cufo4_8W5I5X8OUttPSM-7" value="Program" style="swimlane;fontStyle=1;align=center;verticalAlign=top;childLayout=stackLayout;horizontal=1;startSize=26;horizontalStack=0;resizeParent=1;resizeParentMax=0;resizeLast=0;collapsible=1;marginBottom=0;whiteSpace=wrap;html=1;" parent="1" vertex="1">
                    <mxGeometry x="2525" y="-186" width="160" height="60" as="geometry"/>
                </mxCell>
                <mxCell id="cufo4_8W5I5X8OUttPSM-9" value="" style="line;strokeWidth=1;fillColor=none;align=left;verticalAlign=middle;spacingTop=-1;spacingLeft=3;spacingRight=3;rotatable=0;labelPosition=right;points=[];portConstraint=eastwest;strokeColor=inherit;" parent="cufo4_8W5I5X8OUttPSM-7" vertex="1">
                    <mxGeometry y="26" width="160" height="8" as="geometry"/>
                </mxCell>
                <mxCell id="cufo4_8W5I5X8OUttPSM-10" value="&lt;u&gt;+ Main(string[] args): void&lt;/u&gt;" style="text;strokeColor=none;fillColor=none;align=left;verticalAlign=top;spacingLeft=4;spacingRight=4;overflow=hidden;rotatable=0;points=[[0,0.5],[1,0.5]];portConstraint=eastwest;whiteSpace=wrap;html=1;" parent="cufo4_8W5I5X8OUttPSM-7" vertex="1">
                    <mxGeometry y="34" width="160" height="26" as="geometry"/>
                </mxCell>
                <mxCell id="cufo4_8W5I5X8OUttPSM-11" value="Webserver" style="swimlane;fontStyle=1;align=center;verticalAlign=top;childLayout=stackLayout;horizontal=1;startSize=26;horizontalStack=0;resizeParent=1;resizeParentMax=0;resizeLast=0;collapsible=1;marginBottom=0;whiteSpace=wrap;html=1;" parent="1" vertex="1">
                    <mxGeometry x="2405" y="-54" width="400" height="182" as="geometry"/>
                </mxCell>
                <mxCell id="cufo4_8W5I5X8OUttPSM-12" value="&lt;div&gt;&lt;font color=&quot;#000000&quot;&gt;&lt;span style=&quot;color: rgb(63, 63, 63);&quot;&gt;+ Instance: Webserver&lt;/span&gt;&lt;/font&gt;&lt;/div&gt;&lt;div&gt;&lt;font color=&quot;#000000&quot;&gt;- _instance: Webserver?&lt;/font&gt;&lt;/div&gt;&lt;div&gt;&lt;font color=&quot;#000000&quot;&gt;- _isRunning: bool&lt;/font&gt;&lt;/div&gt;&lt;div&gt;&lt;font color=&quot;#000000&quot;&gt;&lt;font color=&quot;#000000&quot;&gt;&lt;br&gt;&lt;/font&gt;&lt;/font&gt;&lt;div&gt;&lt;br&gt;&lt;/div&gt;&lt;/div&gt;" style="text;strokeColor=none;fillColor=none;align=left;verticalAlign=top;spacingLeft=4;spacingRight=4;overflow=hidden;rotatable=0;points=[[0,0.5],[1,0.5]];portConstraint=eastwest;whiteSpace=wrap;html=1;" parent="cufo4_8W5I5X8OUttPSM-11" vertex="1">
                    <mxGeometry y="26" width="400" height="58" as="geometry"/>
                </mxCell>
                <mxCell id="cufo4_8W5I5X8OUttPSM-13" value="" style="line;strokeWidth=1;fillColor=none;align=left;verticalAlign=middle;spacingTop=-1;spacingLeft=3;spacingRight=3;rotatable=0;labelPosition=right;points=[];portConstraint=eastwest;strokeColor=inherit;" parent="cufo4_8W5I5X8OUttPSM-11" vertex="1">
                    <mxGeometry y="84" width="400" height="8" as="geometry"/>
                </mxCell>
                <mxCell id="cufo4_8W5I5X8OUttPSM-14" value="&lt;div&gt;- Webserver()&lt;/div&gt;&lt;div&gt;+ Start(string[] args): void&lt;/div&gt;&lt;div&gt;- ConfigureApp(WebApplication app): void&lt;/div&gt;&lt;div&gt;- AddServices(WebApplicationBuilder builder): void&lt;/div&gt;&lt;div&gt;- RegisterWebControllers(WebApplicationBuilder builder): void&lt;/div&gt;" style="text;strokeColor=none;fillColor=none;align=left;verticalAlign=top;spacingLeft=4;spacingRight=4;overflow=hidden;rotatable=0;points=[[0,0.5],[1,0.5]];portConstraint=eastwest;whiteSpace=wrap;html=1;" parent="cufo4_8W5I5X8OUttPSM-11" vertex="1">
                    <mxGeometry y="92" width="400" height="90" as="geometry"/>
                </mxCell>
                <mxCell id="12" value="Product" style="swimlane;fontStyle=1;align=center;verticalAlign=top;childLayout=stackLayout;horizontal=1;startSize=26;horizontalStack=0;resizeParent=1;resizeParentMax=0;resizeLast=0;collapsible=1;marginBottom=0;whiteSpace=wrap;html=1;" parent="1" vertex="1">
                    <mxGeometry x="415" y="317" width="160" height="98" as="geometry"/>
                </mxCell>
                <mxCell id="13" value="+ Name : string&lt;div&gt;&lt;font color=&quot;#000000&quot;&gt;+ Url : string&lt;/font&gt;&lt;/div&gt;&lt;div&gt;&lt;font color=&quot;#000000&quot;&gt;+ ProductId : string&lt;/font&gt;&lt;/div&gt;&lt;div&gt;&lt;font color=&quot;#000000&quot;&gt;&lt;br&gt;&lt;/font&gt;&lt;div&gt;&lt;br&gt;&lt;/div&gt;&lt;/div&gt;" style="text;strokeColor=none;fillColor=none;align=left;verticalAlign=top;spacingLeft=4;spacingRight=4;overflow=hidden;rotatable=0;points=[[0,0.5],[1,0.5]];portConstraint=eastwest;whiteSpace=wrap;html=1;" parent="12" vertex="1">
                    <mxGeometry y="26" width="160" height="64" as="geometry"/>
                </mxCell>
                <mxCell id="14" value="" style="line;strokeWidth=1;fillColor=none;align=left;verticalAlign=middle;spacingTop=-1;spacingLeft=3;spacingRight=3;rotatable=0;labelPosition=right;points=[];portConstraint=eastwest;strokeColor=inherit;" parent="12" vertex="1">
                    <mxGeometry y="90" width="160" height="8" as="geometry"/>
                </mxCell>
                <mxCell id="cufo4_8W5I5X8OUttPSM-40" style="edgeStyle=orthogonalEdgeStyle;html=1;endArrow=open;endFill=0;dashed=1;" edge="1" parent="1" source="cufo4_8W5I5X8OUttPSM-15" target="cufo4_8W5I5X8OUttPSM-36">
                    <mxGeometry relative="1" as="geometry">
                        <Array as="points">
                            <mxPoint x="2300" y="310"/>
                        </Array>
                    </mxGeometry>
                </mxCell>
                <mxCell id="cufo4_8W5I5X8OUttPSM-46" style="edgeStyle=orthogonalEdgeStyle;html=1;dashed=1;endArrow=open;endFill=0;" edge="1" parent="1" source="cufo4_8W5I5X8OUttPSM-15" target="cufo4_8W5I5X8OUttPSM-42">
                    <mxGeometry relative="1" as="geometry"/>
                </mxCell>
                <mxCell id="cufo4_8W5I5X8OUttPSM-15" value="&lt;div&gt;&amp;lt;&amp;lt;interface&amp;gt;&amp;gt;&lt;/div&gt;IAssetService&lt;div&gt;&lt;br&gt;&lt;/div&gt;" style="swimlane;fontStyle=1;align=center;verticalAlign=top;childLayout=stackLayout;horizontal=1;startSize=43;horizontalStack=0;resizeParent=1;resizeParentMax=0;resizeLast=0;collapsible=1;marginBottom=0;whiteSpace=wrap;html=1;" parent="1" vertex="1">
                    <mxGeometry x="1680" y="195" width="510" height="150" as="geometry"/>
                </mxCell>
                <mxCell id="cufo4_8W5I5X8OUttPSM-17" value="" style="line;strokeWidth=1;fillColor=none;align=left;verticalAlign=middle;spacingTop=-1;spacingLeft=3;spacingRight=3;rotatable=0;labelPosition=right;points=[];portConstraint=eastwest;strokeColor=inherit;" parent="cufo4_8W5I5X8OUttPSM-15" vertex="1">
                    <mxGeometry y="43" width="510" height="8" as="geometry"/>
                </mxCell>
                <mxCell id="cufo4_8W5I5X8OUttPSM-18" value="&lt;div&gt;+ GetProductAssets(string productId): Task&amp;lt;IActionResult&amp;gt;&lt;/div&gt;&lt;div&gt;+ GetAssetImage(string productId, string priority):&amp;nbsp;&lt;span style=&quot;color: rgb(63, 63, 63); background-color: transparent;&quot;&gt;Task&amp;lt;IActionResult&amp;gt;&lt;/span&gt;&lt;/div&gt;&lt;div&gt;+ CreateImage(string productId, CreateImageRequest requestParams):&amp;nbsp;&lt;span style=&quot;color: rgb(63, 63, 63); background-color: transparent;&quot;&gt;Task&amp;lt;IActionResult&amp;gt;&lt;/span&gt;&lt;/div&gt;&lt;div&gt;+ UpdateImage(string imageId, UpdateImageRequest requestParams):&amp;nbsp;&lt;span style=&quot;color: rgb(63, 63, 63); background-color: transparent;&quot;&gt;Task&amp;lt;IActionResult&amp;gt;&lt;/span&gt;&lt;span style=&quot;background-color: transparent;&quot;&gt;&amp;nbsp;&lt;/span&gt;&lt;/div&gt;&lt;div&gt;+ PatchImage(string imageId, PatchImageRequest requestParams):&amp;nbsp;&lt;span style=&quot;color: rgb(63, 63, 63); background-color: transparent;&quot;&gt;Task&amp;lt;IActionResult&amp;gt;&lt;/span&gt;&lt;span style=&quot;background-color: transparent;&quot;&gt;&amp;nbsp;&lt;/span&gt;&lt;/div&gt;&lt;div&gt;+ DeleteImage(string imageId):&amp;nbsp;&lt;span style=&quot;color: rgb(63, 63, 63); background-color: transparent;&quot;&gt;Task&amp;lt;IActionResult&amp;gt;&lt;/span&gt;&lt;/div&gt;" style="text;strokeColor=none;fillColor=none;align=left;verticalAlign=top;spacingLeft=4;spacingRight=4;overflow=hidden;rotatable=0;points=[[0,0.5],[1,0.5]];portConstraint=eastwest;whiteSpace=wrap;html=1;" parent="cufo4_8W5I5X8OUttPSM-15" vertex="1">
                    <mxGeometry y="51" width="510" height="99" as="geometry"/>
                </mxCell>
                <mxCell id="IGVsEpAHjz5Vt69uYRel-15" value="Image" style="swimlane;fontStyle=1;align=center;verticalAlign=top;childLayout=stackLayout;horizontal=1;startSize=26;horizontalStack=0;resizeParent=1;resizeParentMax=0;resizeLast=0;collapsible=1;marginBottom=0;whiteSpace=wrap;html=1;" parent="1" vertex="1">
                    <mxGeometry x="690" y="720" width="160" height="60" as="geometry"/>
                </mxCell>
                <mxCell id="IGVsEpAHjz5Vt69uYRel-16" value="- _url: string" style="text;strokeColor=none;fillColor=none;align=left;verticalAlign=top;spacingLeft=4;spacingRight=4;overflow=hidden;rotatable=0;points=[[0,0.5],[1,0.5]];portConstraint=eastwest;whiteSpace=wrap;html=1;" parent="IGVsEpAHjz5Vt69uYRel-15" vertex="1">
                    <mxGeometry y="26" width="160" height="26" as="geometry"/>
                </mxCell>
                <mxCell id="IGVsEpAHjz5Vt69uYRel-17" value="" style="line;strokeWidth=1;fillColor=none;align=left;verticalAlign=middle;spacingTop=-1;spacingLeft=3;spacingRight=3;rotatable=0;labelPosition=right;points=[];portConstraint=eastwest;strokeColor=inherit;" parent="IGVsEpAHjz5Vt69uYRel-15" vertex="1">
                    <mxGeometry y="52" width="160" height="8" as="geometry"/>
                </mxCell>
                <mxCell id="24" style="edgeStyle=none;html=1;endArrow=openThin;endFill=0;" edge="1" parent="1" source="LsVSyD9h6sSGvPL9IqPf-24" target="12">
                    <mxGeometry relative="1" as="geometry"/>
                </mxCell>
                <mxCell id="25" style="edgeStyle=none;html=1;dashed=1;endArrow=openThin;endFill=0;" edge="1" parent="1" source="LsVSyD9h6sSGvPL9IqPf-24" target="3">
                    <mxGeometry relative="1" as="geometry"/>
                </mxCell>
                <mxCell id="LsVSyD9h6sSGvPL9IqPf-24" value="&lt;span style=&quot;color: rgb(0, 0, 0);&quot;&gt;Overview&lt;/span&gt;" style="swimlane;fontStyle=1;align=center;verticalAlign=top;childLayout=stackLayout;horizontal=1;startSize=26;horizontalStack=0;resizeParent=1;resizeParentMax=0;resizeLast=0;collapsible=1;marginBottom=0;whiteSpace=wrap;html=1;" vertex="1" parent="1">
                    <mxGeometry x="380" y="445" width="230" height="210" as="geometry"/>
                </mxCell>
                <mxCell id="LsVSyD9h6sSGvPL9IqPf-25" value="- _isLoaded : bool&lt;div&gt;&lt;font&gt;- searchText : string&lt;/font&gt;&lt;/div&gt;&lt;div&gt;&lt;font&gt;- products : List&amp;lt;Product&amp;gt;&lt;/font&gt;&lt;/div&gt;&lt;div&gt;&lt;font&gt;&lt;br&gt;&lt;/font&gt;&lt;/div&gt;" style="text;strokeColor=none;fillColor=none;align=left;verticalAlign=top;spacingLeft=4;spacingRight=4;overflow=hidden;rotatable=0;points=[[0,0.5],[1,0.5]];portConstraint=eastwest;whiteSpace=wrap;html=1;" vertex="1" parent="LsVSyD9h6sSGvPL9IqPf-24">
                    <mxGeometry y="26" width="230" height="74" as="geometry"/>
                </mxCell>
                <mxCell id="LsVSyD9h6sSGvPL9IqPf-26" value="" style="line;strokeWidth=1;fillColor=none;align=left;verticalAlign=middle;spacingTop=-1;spacingLeft=3;spacingRight=3;rotatable=0;labelPosition=right;points=[];portConstraint=eastwest;strokeColor=inherit;" vertex="1" parent="LsVSyD9h6sSGvPL9IqPf-24">
                    <mxGeometry y="100" width="230" height="8" as="geometry"/>
                </mxCell>
                <mxCell id="LsVSyD9h6sSGvPL9IqPf-27" value="# OnInitialized() : void&lt;div&gt;# OnAfterRenderAsync() : void&lt;/div&gt;&lt;div&gt;+ MockProducts() : void&amp;nbsp;&lt;/div&gt;&lt;div&gt;+ NavigateToHome() : void&lt;/div&gt;&lt;div&gt;+&amp;nbsp;OnImageClickNavigateTo(string) : void&lt;/div&gt;&lt;div&gt;&lt;br&gt;&lt;/div&gt;&lt;div&gt;&lt;br&gt;&lt;/div&gt;" style="text;strokeColor=none;fillColor=none;align=left;verticalAlign=top;spacingLeft=4;spacingRight=4;overflow=hidden;rotatable=0;points=[[0,0.5],[1,0.5]];portConstraint=eastwest;whiteSpace=wrap;html=1;" vertex="1" parent="LsVSyD9h6sSGvPL9IqPf-24">
                    <mxGeometry y="108" width="230" height="102" as="geometry"/>
                </mxCell>
                <mxCell id="cufo4_8W5I5X8OUttPSM-27" style="edgeStyle=none;html=1;endArrow=block;endFill=0;dashed=1;" edge="1" parent="1" source="cufo4_8W5I5X8OUttPSM-23" target="cufo4_8W5I5X8OUttPSM-15">
                    <mxGeometry relative="1" as="geometry"/>
                </mxCell>
                <mxCell id="cufo4_8W5I5X8OUttPSM-23" value="AssetService" style="swimlane;fontStyle=1;align=center;verticalAlign=top;childLayout=stackLayout;horizontal=1;startSize=26;horizontalStack=0;resizeParent=1;resizeParentMax=0;resizeLast=0;collapsible=1;marginBottom=0;whiteSpace=wrap;html=1;" vertex="1" parent="1">
                    <mxGeometry x="1855" y="450" width="160" height="60" as="geometry"/>
                </mxCell>
                <mxCell id="cufo4_8W5I5X8OUttPSM-25" value="" style="line;strokeWidth=1;fillColor=none;align=left;verticalAlign=middle;spacingTop=-1;spacingLeft=3;spacingRight=3;rotatable=0;labelPosition=right;points=[];portConstraint=eastwest;strokeColor=inherit;" vertex="1" parent="cufo4_8W5I5X8OUttPSM-23">
                    <mxGeometry y="26" width="160" height="8" as="geometry"/>
                </mxCell>
                <mxCell id="cufo4_8W5I5X8OUttPSM-26" value="+ AssetService()" style="text;strokeColor=none;fillColor=none;align=left;verticalAlign=top;spacingLeft=4;spacingRight=4;overflow=hidden;rotatable=0;points=[[0,0.5],[1,0.5]];portConstraint=eastwest;whiteSpace=wrap;html=1;" vertex="1" parent="cufo4_8W5I5X8OUttPSM-23">
                    <mxGeometry y="34" width="160" height="26" as="geometry"/>
                </mxCell>
                <mxCell id="cufo4_8W5I5X8OUttPSM-48" style="edgeStyle=none;html=1;" edge="1" parent="1" source="IGVsEpAHjz5Vt69uYRel-24" target="cufo4_8W5I5X8OUttPSM-23">
                    <mxGeometry relative="1" as="geometry"/>
                </mxCell>
                <mxCell id="cufo4_8W5I5X8OUttPSM-50" style="edgeStyle=none;html=1;endArrow=open;endFill=0;dashed=1;" edge="1" parent="1" source="IGVsEpAHjz5Vt69uYRel-24" target="cufo4_8W5I5X8OUttPSM-36">
                    <mxGeometry relative="1" as="geometry"/>
                </mxCell>
                <mxCell id="cufo4_8W5I5X8OUttPSM-51" style="edgeStyle=none;html=1;endArrow=open;endFill=0;dashed=1;" edge="1" parent="1" source="IGVsEpAHjz5Vt69uYRel-24" target="cufo4_8W5I5X8OUttPSM-31">
                    <mxGeometry relative="1" as="geometry"/>
                </mxCell>
                <mxCell id="cufo4_8W5I5X8OUttPSM-52" style="edgeStyle=none;html=1;endArrow=open;endFill=0;dashed=1;" edge="1" parent="1" source="IGVsEpAHjz5Vt69uYRel-24" target="cufo4_8W5I5X8OUttPSM-42">
                    <mxGeometry relative="1" as="geometry"/>
                </mxCell>
                <mxCell id="IGVsEpAHjz5Vt69uYRel-24" value="AssetsController" style="swimlane;fontStyle=1;align=center;verticalAlign=top;childLayout=stackLayout;horizontal=1;startSize=26;horizontalStack=0;resizeParent=1;resizeParentMax=0;resizeLast=0;collapsible=1;marginBottom=0;whiteSpace=wrap;html=1;" vertex="1" parent="1">
                    <mxGeometry x="2312" y="518" width="370" height="167" as="geometry"/>
                </mxCell>
                <mxCell id="IGVsEpAHjz5Vt69uYRel-25" value="- _assetService: AssetService&lt;div&gt;&lt;br&gt;&lt;/div&gt;" style="text;strokeColor=none;fillColor=none;align=left;verticalAlign=top;spacingLeft=4;spacingRight=4;overflow=hidden;rotatable=0;points=[[0,0.5],[1,0.5]];portConstraint=eastwest;whiteSpace=wrap;html=1;" vertex="1" parent="IGVsEpAHjz5Vt69uYRel-24">
                    <mxGeometry y="26" width="370" height="30" as="geometry"/>
                </mxCell>
                <mxCell id="IGVsEpAHjz5Vt69uYRel-26" value="" style="line;strokeWidth=1;fillColor=none;align=left;verticalAlign=middle;spacingTop=-1;spacingLeft=3;spacingRight=3;rotatable=0;labelPosition=right;points=[];portConstraint=eastwest;strokeColor=inherit;" vertex="1" parent="IGVsEpAHjz5Vt69uYRel-24">
                    <mxGeometry y="56" width="370" height="8" as="geometry"/>
                </mxCell>
                <mxCell id="IGVsEpAHjz5Vt69uYRel-27" value="+ GetProductAssets(string)&lt;div&gt;+ GetImageFromProduct(string)&lt;/div&gt;&lt;div&gt;+ PostCreateImage(string, CreateImageRequest)&lt;/div&gt;&lt;div&gt;+ PutUpdateImage(string, UpdateImageRequest)&lt;/div&gt;&lt;div&gt;+ PatchUpdateImage(string, PatchImageRequest)&lt;/div&gt;&lt;div&gt;+ DeleteImage(string)&lt;/div&gt;" style="text;strokeColor=none;fillColor=none;align=left;verticalAlign=top;spacingLeft=4;spacingRight=4;overflow=hidden;rotatable=0;points=[[0,0.5],[1,0.5]];portConstraint=eastwest;whiteSpace=wrap;html=1;" vertex="1" parent="IGVsEpAHjz5Vt69uYRel-24">
                    <mxGeometry y="64" width="370" height="103" as="geometry"/>
                </mxCell>
                <mxCell id="cufo4_8W5I5X8OUttPSM-31" value="UpdateImageRequest" style="swimlane;fontStyle=1;align=center;verticalAlign=top;childLayout=stackLayout;horizontal=1;startSize=26;horizontalStack=0;resizeParent=1;resizeParentMax=0;resizeLast=0;collapsible=1;marginBottom=0;whiteSpace=wrap;html=1;" vertex="1" parent="1">
                    <mxGeometry x="2460" y="360" width="160" height="34" as="geometry"/>
                </mxCell>
                <mxCell id="cufo4_8W5I5X8OUttPSM-33" value="" style="line;strokeWidth=1;fillColor=none;align=left;verticalAlign=middle;spacingTop=-1;spacingLeft=3;spacingRight=3;rotatable=0;labelPosition=right;points=[];portConstraint=eastwest;strokeColor=inherit;" vertex="1" parent="cufo4_8W5I5X8OUttPSM-31">
                    <mxGeometry y="26" width="160" height="8" as="geometry"/>
                </mxCell>
                <mxCell id="cufo4_8W5I5X8OUttPSM-35" style="edgeStyle=orthogonalEdgeStyle;html=1;dashed=1;endArrow=open;endFill=0;" edge="1" parent="1" source="cufo4_8W5I5X8OUttPSM-18" target="cufo4_8W5I5X8OUttPSM-31">
                    <mxGeometry relative="1" as="geometry"/>
                </mxCell>
                <mxCell id="cufo4_8W5I5X8OUttPSM-36" value="PatchImageRequest" style="swimlane;fontStyle=1;align=center;verticalAlign=top;childLayout=stackLayout;horizontal=1;startSize=26;horizontalStack=0;resizeParent=1;resizeParentMax=0;resizeLast=0;collapsible=1;marginBottom=0;whiteSpace=wrap;html=1;" vertex="1" parent="1">
                    <mxGeometry x="2220" y="360" width="160" height="34" as="geometry"/>
                </mxCell>
                <mxCell id="cufo4_8W5I5X8OUttPSM-38" value="" style="line;strokeWidth=1;fillColor=none;align=left;verticalAlign=middle;spacingTop=-1;spacingLeft=3;spacingRight=3;rotatable=0;labelPosition=right;points=[];portConstraint=eastwest;strokeColor=inherit;" vertex="1" parent="cufo4_8W5I5X8OUttPSM-36">
                    <mxGeometry y="26" width="160" height="8" as="geometry"/>
                </mxCell>
                <mxCell id="cufo4_8W5I5X8OUttPSM-42" value="CreateImageRequest" style="swimlane;fontStyle=1;align=center;verticalAlign=top;childLayout=stackLayout;horizontal=1;startSize=26;horizontalStack=0;resizeParent=1;resizeParentMax=0;resizeLast=0;collapsible=1;marginBottom=0;whiteSpace=wrap;html=1;" vertex="1" parent="1">
                    <mxGeometry x="2688" y="355" width="160" height="128" as="geometry"/>
                </mxCell>
                <mxCell id="cufo4_8W5I5X8OUttPSM-43" value="+ Content: byte[]&lt;div&gt;+ ProductId: Guid&lt;/div&gt;&lt;div&gt;+ IsShown: bool&lt;/div&gt;&lt;div&gt;+ Priority: int?&lt;/div&gt;&lt;div&gt;+ Width: int?&lt;/div&gt;&lt;div&gt;+ Height: int?&lt;/div&gt;" style="text;strokeColor=none;fillColor=none;align=left;verticalAlign=top;spacingLeft=4;spacingRight=4;overflow=hidden;rotatable=0;points=[[0,0.5],[1,0.5]];portConstraint=eastwest;whiteSpace=wrap;html=1;" vertex="1" parent="cufo4_8W5I5X8OUttPSM-42">
                    <mxGeometry y="26" width="160" height="94" as="geometry"/>
                </mxCell>
                <mxCell id="cufo4_8W5I5X8OUttPSM-44" value="" style="line;strokeWidth=1;fillColor=none;align=left;verticalAlign=middle;spacingTop=-1;spacingLeft=3;spacingRight=3;rotatable=0;labelPosition=right;points=[];portConstraint=eastwest;strokeColor=inherit;" vertex="1" parent="cufo4_8W5I5X8OUttPSM-42">
                    <mxGeometry y="120" width="160" height="8" as="geometry"/>
                </mxCell>
                <mxCell id="36" style="edgeStyle=none;html=1;endArrow=block;endFill=0;" edge="1" parent="1" source="30" target="IGVsEpAHjz5Vt69uYRel-40">
                    <mxGeometry relative="1" as="geometry"/>
                </mxCell>
                <mxCell id="30" value="&lt;span style=&quot;color: rgb(0, 0, 0);&quot;&gt;Edit&lt;/span&gt;" style="swimlane;fontStyle=1;align=center;verticalAlign=top;childLayout=stackLayout;horizontal=1;startSize=26;horizontalStack=0;resizeParent=1;resizeParentMax=0;resizeLast=0;collapsible=1;marginBottom=0;whiteSpace=wrap;html=1;" vertex="1" parent="1">
                    <mxGeometry x="660" y="550" width="220" height="130" as="geometry"/>
                </mxCell>
                <mxCell id="31" value="&lt;span style=&quot;color: rgb(0, 0, 0);&quot;&gt;- productId : string&lt;/span&gt;&lt;div&gt;- productName : string&lt;/div&gt;&lt;div&gt;- productUrl : string&lt;/div&gt;&lt;div&gt;&lt;br&gt;&lt;/div&gt;" style="text;strokeColor=none;fillColor=none;align=left;verticalAlign=top;spacingLeft=4;spacingRight=4;overflow=hidden;rotatable=0;points=[[0,0.5],[1,0.5]];portConstraint=eastwest;whiteSpace=wrap;html=1;" vertex="1" parent="30">
                    <mxGeometry y="26" width="220" height="54" as="geometry"/>
                </mxCell>
                <mxCell id="32" value="" style="line;strokeWidth=1;fillColor=none;align=left;verticalAlign=middle;spacingTop=-1;spacingLeft=3;spacingRight=3;rotatable=0;labelPosition=right;points=[];portConstraint=eastwest;strokeColor=inherit;" vertex="1" parent="30">
                    <mxGeometry y="80" width="220" height="8" as="geometry"/>
                </mxCell>
                <mxCell id="33" value="&lt;span style=&quot;color: rgb(0, 0, 0);&quot;&gt;# OnInitialized() : void&lt;/span&gt;&lt;div&gt;&lt;font color=&quot;#000000&quot;&gt;+ GetImagesFromDb() : List&amp;lt;Image&amp;gt;&lt;br&gt;&lt;/font&gt;&lt;div&gt;&lt;span style=&quot;color: rgb(0, 0, 0);&quot;&gt;&lt;br&gt;&lt;/span&gt;&lt;/div&gt;&lt;/div&gt;" style="text;strokeColor=none;fillColor=none;align=left;verticalAlign=top;spacingLeft=4;spacingRight=4;overflow=hidden;rotatable=0;points=[[0,0.5],[1,0.5]];portConstraint=eastwest;whiteSpace=wrap;html=1;" vertex="1" parent="30">
                    <mxGeometry y="88" width="220" height="42" as="geometry"/>
                </mxCell>
                <mxCell id="34" style="edgeStyle=none;html=1;dashed=1;endArrow=openThin;endFill=0;" edge="1" parent="1" source="33" target="IGVsEpAHjz5Vt69uYRel-15">
                    <mxGeometry relative="1" as="geometry"/>
                </mxCell>
                <mxCell id="IGVsEpAHjz5Vt69uYRel-40" value="&lt;div&gt;&lt;span style=&quot;background-color: transparent; color: rgb(63, 63, 63);&quot;&gt;&amp;lt;&amp;lt;abstract&amp;gt;&amp;gt;&lt;/span&gt;&lt;/div&gt;&lt;div&gt;ComponentBase&lt;/div&gt;" style="swimlane;fontStyle=1;align=center;verticalAlign=top;childLayout=stackLayout;horizontal=1;startSize=40;horizontalStack=0;resizeParent=1;resizeParentMax=0;resizeLast=0;collapsible=1;marginBottom=0;whiteSpace=wrap;html=1;" vertex="1" parent="1">
                    <mxGeometry x="660" y="370" width="260" height="144" as="geometry"/>
                </mxCell>
                <mxCell id="IGVsEpAHjz5Vt69uYRel-41" value="..." style="text;strokeColor=none;fillColor=none;align=left;verticalAlign=top;spacingLeft=4;spacingRight=4;overflow=hidden;rotatable=0;points=[[0,0.5],[1,0.5]];portConstraint=eastwest;whiteSpace=wrap;html=1;" vertex="1" parent="IGVsEpAHjz5Vt69uYRel-40">
                    <mxGeometry y="40" width="260" height="26" as="geometry"/>
                </mxCell>
                <mxCell id="IGVsEpAHjz5Vt69uYRel-42" value="" style="line;strokeWidth=1;fillColor=none;align=left;verticalAlign=middle;spacingTop=-1;spacingLeft=3;spacingRight=3;rotatable=0;labelPosition=right;points=[];portConstraint=eastwest;strokeColor=inherit;" vertex="1" parent="IGVsEpAHjz5Vt69uYRel-40">
                    <mxGeometry y="66" width="260" height="8" as="geometry"/>
                </mxCell>
                <mxCell id="IGVsEpAHjz5Vt69uYRel-43" value="#OnInitialized(): void&lt;div&gt;...&lt;/div&gt;" style="text;strokeColor=none;fillColor=none;align=left;verticalAlign=top;spacingLeft=4;spacingRight=4;overflow=hidden;rotatable=0;points=[[0,0.5],[1,0.5]];portConstraint=eastwest;whiteSpace=wrap;html=1;" vertex="1" parent="IGVsEpAHjz5Vt69uYRel-40">
                    <mxGeometry y="74" width="260" height="70" as="geometry"/>
                </mxCell>
                <mxCell id="IGVsEpAHjz5Vt69uYRel-44" value="&amp;lt;&amp;lt;abstract&amp;gt;&amp;gt;&lt;div&gt;ApiController&lt;/div&gt;" style="swimlane;fontStyle=1;align=center;verticalAlign=top;childLayout=stackLayout;horizontal=1;startSize=40;horizontalStack=0;resizeParent=1;resizeParentMax=0;resizeLast=0;collapsible=1;marginBottom=0;whiteSpace=wrap;html=1;" vertex="1" parent="1">
                    <mxGeometry x="1768" y="569" width="260" height="110" as="geometry"/>
                </mxCell>
                <mxCell id="IGVsEpAHjz5Vt69uYRel-45" value="..." style="text;strokeColor=none;fillColor=none;align=left;verticalAlign=top;spacingLeft=4;spacingRight=4;overflow=hidden;rotatable=0;points=[[0,0.5],[1,0.5]];portConstraint=eastwest;whiteSpace=wrap;html=1;" vertex="1" parent="IGVsEpAHjz5Vt69uYRel-44">
                    <mxGeometry y="40" width="260" height="26" as="geometry"/>
                </mxCell>
                <mxCell id="IGVsEpAHjz5Vt69uYRel-46" value="" style="line;strokeWidth=1;fillColor=none;align=left;verticalAlign=middle;spacingTop=-1;spacingLeft=3;spacingRight=3;rotatable=0;labelPosition=right;points=[];portConstraint=eastwest;strokeColor=inherit;" vertex="1" parent="IGVsEpAHjz5Vt69uYRel-44">
                    <mxGeometry y="66" width="260" height="8" as="geometry"/>
                </mxCell>
                <mxCell id="IGVsEpAHjz5Vt69uYRel-47" value="..." style="text;strokeColor=none;fillColor=none;align=left;verticalAlign=top;spacingLeft=4;spacingRight=4;overflow=hidden;rotatable=0;points=[[0,0.5],[1,0.5]];portConstraint=eastwest;whiteSpace=wrap;html=1;" vertex="1" parent="IGVsEpAHjz5Vt69uYRel-44">
                    <mxGeometry y="74" width="260" height="36" as="geometry"/>
                </mxCell>
                <mxCell id="cufo4_8W5I5X8OUttPSM-64" style="edgeStyle=none;html=1;endArrow=open;endFill=0;" edge="1" parent="1" source="cufo4_8W5I5X8OUttPSM-56" target="cufo4_8W5I5X8OUttPSM-60">
                    <mxGeometry relative="1" as="geometry">
                        <mxPoint x="1642.5756756756757" y="-154" as="targetPoint"/>
                    </mxGeometry>
                </mxCell>
                <mxCell id="cufo4_8W5I5X8OUttPSM-77" style="edgeStyle=none;html=1;endArrow=open;endFill=0;" edge="1" parent="1" source="cufo4_8W5I5X8OUttPSM-56" target="cufo4_8W5I5X8OUttPSM-65">
                    <mxGeometry relative="1" as="geometry"/>
                </mxCell>
                <mxCell id="cufo4_8W5I5X8OUttPSM-78" style="edgeStyle=none;html=1;endArrow=open;endFill=0;" edge="1" parent="1" source="cufo4_8W5I5X8OUttPSM-56" target="cufo4_8W5I5X8OUttPSM-69">
                    <mxGeometry relative="1" as="geometry"/>
                </mxCell>
                <mxCell id="cufo4_8W5I5X8OUttPSM-79" style="edgeStyle=none;html=1;endArrow=open;endFill=0;" edge="1" parent="1" source="cufo4_8W5I5X8OUttPSM-56" target="cufo4_8W5I5X8OUttPSM-73">
                    <mxGeometry relative="1" as="geometry"/>
                </mxCell>
                <mxCell id="cufo4_8W5I5X8OUttPSM-56" value="Database" style="swimlane;fontStyle=1;align=center;verticalAlign=top;childLayout=stackLayout;horizontal=1;startSize=26;horizontalStack=0;resizeParent=1;resizeParentMax=0;resizeLast=0;collapsible=1;marginBottom=0;whiteSpace=wrap;html=1;" vertex="1" parent="1">
                    <mxGeometry x="1890" y="-192" width="321" height="270" as="geometry"/>
                </mxCell>
                <mxCell id="cufo4_8W5I5X8OUttPSM-57" value="+ Images: DbSet&amp;lt;Image&amp;gt;&lt;div&gt;+ Product: DbSet&amp;lt;Product&amp;gt;&lt;/div&gt;&lt;div&gt;+ Tags: DbSet&amp;lt;Tag&amp;gt;&lt;/div&gt;&lt;div&gt;+ TagImageGroups: DbSet&amp;lt;TagImageGroup&amp;gt;&lt;/div&gt;&lt;div&gt;- _instance: Database?&lt;/div&gt;&lt;div&gt;&lt;u&gt;+ Instance: Database&lt;/u&gt;&lt;/div&gt;&lt;div&gt;+ DbPath: string&lt;/div&gt;" style="text;strokeColor=none;fillColor=none;align=left;verticalAlign=top;spacingLeft=4;spacingRight=4;overflow=hidden;rotatable=0;points=[[0,0.5],[1,0.5]];portConstraint=eastwest;whiteSpace=wrap;html=1;" vertex="1" parent="cufo4_8W5I5X8OUttPSM-56">
                    <mxGeometry y="26" width="321" height="121" as="geometry"/>
                </mxCell>
                <mxCell id="cufo4_8W5I5X8OUttPSM-58" value="" style="line;strokeWidth=1;fillColor=none;align=left;verticalAlign=middle;spacingTop=-1;spacingLeft=3;spacingRight=3;rotatable=0;labelPosition=right;points=[];portConstraint=eastwest;strokeColor=inherit;" vertex="1" parent="cufo4_8W5I5X8OUttPSM-56">
                    <mxGeometry y="147" width="321" height="8" as="geometry"/>
                </mxCell>
                <mxCell id="cufo4_8W5I5X8OUttPSM-59" value="- Database()&lt;div&gt;+ Create&amp;lt;T&amp;gt;(T)&lt;/div&gt;&lt;div&gt;+ Read&amp;lt;T&amp;gt;(object)&lt;/div&gt;&lt;div&gt;+ ReadAll&amp;lt;T&amp;gt;(id)&lt;/div&gt;&lt;div&gt;+ Update&amp;lt;T&amp;gt;(T)&lt;/div&gt;&lt;div&gt;+ Delete&amp;lt;T&amp;gt;(T)&lt;/div&gt;&lt;div&gt;+ Delete&amp;lt;T&amp;gt;(object)&lt;/div&gt;&lt;div&gt;&lt;br&gt;&lt;/div&gt;" style="text;strokeColor=none;fillColor=none;align=left;verticalAlign=top;spacingLeft=4;spacingRight=4;overflow=hidden;rotatable=0;points=[[0,0.5],[1,0.5]];portConstraint=eastwest;whiteSpace=wrap;html=1;" vertex="1" parent="cufo4_8W5I5X8OUttPSM-56">
                    <mxGeometry y="155" width="321" height="115" as="geometry"/>
                </mxCell>
                <mxCell id="35" style="edgeStyle=none;html=1;endArrow=block;endFill=0;" edge="1" parent="1" source="LsVSyD9h6sSGvPL9IqPf-25" target="IGVsEpAHjz5Vt69uYRel-40">
                    <mxGeometry relative="1" as="geometry"/>
                </mxCell>
                <mxCell id="cufo4_8W5I5X8OUttPSM-60" value="Image" style="swimlane;fontStyle=1;align=center;verticalAlign=top;childLayout=stackLayout;horizontal=1;startSize=26;horizontalStack=0;resizeParent=1;resizeParentMax=0;resizeLast=0;collapsible=1;marginBottom=0;whiteSpace=wrap;html=1;" vertex="1" parent="1">
                    <mxGeometry x="1599" y="-368" width="160" height="180" as="geometry"/>
                </mxCell>
                <mxCell id="cufo4_8W5I5X8OUttPSM-61" value="+ UUID: Guid&lt;div&gt;+ Content: byte[]&lt;/div&gt;&lt;div&gt;+ Width: int&lt;/div&gt;&lt;div&gt;+ Height: int&lt;/div&gt;&lt;div&gt;+ Product: Product&lt;/div&gt;&lt;div&gt;+ Priority: int&lt;/div&gt;&lt;div&gt;+ IsShown: bool&lt;/div&gt;&lt;div&gt;+ CreateAt: DateTime&lt;/div&gt;&lt;div&gt;+ UpdatedAt: DateTime&lt;/div&gt;" style="text;strokeColor=none;fillColor=none;align=left;verticalAlign=top;spacingLeft=4;spacingRight=4;overflow=hidden;rotatable=0;points=[[0,0.5],[1,0.5]];portConstraint=eastwest;whiteSpace=wrap;html=1;" vertex="1" parent="cufo4_8W5I5X8OUttPSM-60">
                    <mxGeometry y="26" width="160" height="146" as="geometry"/>
                </mxCell>
                <mxCell id="cufo4_8W5I5X8OUttPSM-62" value="" style="line;strokeWidth=1;fillColor=none;align=left;verticalAlign=middle;spacingTop=-1;spacingLeft=3;spacingRight=3;rotatable=0;labelPosition=right;points=[];portConstraint=eastwest;strokeColor=inherit;" vertex="1" parent="cufo4_8W5I5X8OUttPSM-60">
                    <mxGeometry y="172" width="160" height="8" as="geometry"/>
                </mxCell>
                <mxCell id="cufo4_8W5I5X8OUttPSM-65" value="Product" style="swimlane;fontStyle=1;align=center;verticalAlign=top;childLayout=stackLayout;horizontal=1;startSize=26;horizontalStack=0;resizeParent=1;resizeParentMax=0;resizeLast=0;collapsible=1;marginBottom=0;whiteSpace=wrap;html=1;" vertex="1" parent="1">
                    <mxGeometry x="1781" y="-367" width="160" height="76" as="geometry"/>
                </mxCell>
                <mxCell id="cufo4_8W5I5X8OUttPSM-66" value="+ UUID: Guid&lt;div&gt;+ Name: string&lt;/div&gt;" style="text;strokeColor=none;fillColor=none;align=left;verticalAlign=top;spacingLeft=4;spacingRight=4;overflow=hidden;rotatable=0;points=[[0,0.5],[1,0.5]];portConstraint=eastwest;whiteSpace=wrap;html=1;" vertex="1" parent="cufo4_8W5I5X8OUttPSM-65">
                    <mxGeometry y="26" width="160" height="42" as="geometry"/>
                </mxCell>
                <mxCell id="cufo4_8W5I5X8OUttPSM-67" value="" style="line;strokeWidth=1;fillColor=none;align=left;verticalAlign=middle;spacingTop=-1;spacingLeft=3;spacingRight=3;rotatable=0;labelPosition=right;points=[];portConstraint=eastwest;strokeColor=inherit;" vertex="1" parent="cufo4_8W5I5X8OUttPSM-65">
                    <mxGeometry y="68" width="160" height="8" as="geometry"/>
                </mxCell>
                <mxCell id="cufo4_8W5I5X8OUttPSM-69" value="Tag" style="swimlane;fontStyle=1;align=center;verticalAlign=top;childLayout=stackLayout;horizontal=1;startSize=26;horizontalStack=0;resizeParent=1;resizeParentMax=0;resizeLast=0;collapsible=1;marginBottom=0;whiteSpace=wrap;html=1;" vertex="1" parent="1">
                    <mxGeometry x="1972" y="-367" width="160" height="130" as="geometry"/>
                </mxCell>
                <mxCell id="cufo4_8W5I5X8OUttPSM-70" value="+ TagID: int&lt;div&gt;+ Name: string&lt;/div&gt;&lt;div&gt;+ IsAddedByUser: bool&lt;/div&gt;" style="text;strokeColor=none;fillColor=none;align=left;verticalAlign=top;spacingLeft=4;spacingRight=4;overflow=hidden;rotatable=0;points=[[0,0.5],[1,0.5]];portConstraint=eastwest;whiteSpace=wrap;html=1;" vertex="1" parent="cufo4_8W5I5X8OUttPSM-69">
                    <mxGeometry y="26" width="160" height="54" as="geometry"/>
                </mxCell>
                <mxCell id="cufo4_8W5I5X8OUttPSM-71" value="" style="line;strokeWidth=1;fillColor=none;align=left;verticalAlign=middle;spacingTop=-1;spacingLeft=3;spacingRight=3;rotatable=0;labelPosition=right;points=[];portConstraint=eastwest;strokeColor=inherit;" vertex="1" parent="cufo4_8W5I5X8OUttPSM-69">
                    <mxGeometry y="80" width="160" height="8" as="geometry"/>
                </mxCell>
                <mxCell id="cufo4_8W5I5X8OUttPSM-72" value="+ Tag(string name, bool isAddedByUser)" style="text;strokeColor=none;fillColor=none;align=left;verticalAlign=top;spacingLeft=4;spacingRight=4;overflow=hidden;rotatable=0;points=[[0,0.5],[1,0.5]];portConstraint=eastwest;whiteSpace=wrap;html=1;" vertex="1" parent="cufo4_8W5I5X8OUttPSM-69">
                    <mxGeometry y="88" width="160" height="42" as="geometry"/>
                </mxCell>
                <mxCell id="cufo4_8W5I5X8OUttPSM-73" value="TagImageGroup" style="swimlane;fontStyle=1;align=center;verticalAlign=top;childLayout=stackLayout;horizontal=1;startSize=26;horizontalStack=0;resizeParent=1;resizeParentMax=0;resizeLast=0;collapsible=1;marginBottom=0;whiteSpace=wrap;html=1;" vertex="1" parent="1">
                    <mxGeometry x="2167" y="-367" width="160" height="88" as="geometry"/>
                </mxCell>
                <mxCell id="cufo4_8W5I5X8OUttPSM-74" value="+ TagImageGroup: int&lt;div&gt;+ Tag: Tag&lt;/div&gt;&lt;div&gt;+ Image: Image&lt;/div&gt;" style="text;strokeColor=none;fillColor=none;align=left;verticalAlign=top;spacingLeft=4;spacingRight=4;overflow=hidden;rotatable=0;points=[[0,0.5],[1,0.5]];portConstraint=eastwest;whiteSpace=wrap;html=1;" vertex="1" parent="cufo4_8W5I5X8OUttPSM-73">
                    <mxGeometry y="26" width="160" height="54" as="geometry"/>
                </mxCell>
                <mxCell id="cufo4_8W5I5X8OUttPSM-75" value="" style="line;strokeWidth=1;fillColor=none;align=left;verticalAlign=middle;spacingTop=-1;spacingLeft=3;spacingRight=3;rotatable=0;labelPosition=right;points=[];portConstraint=eastwest;strokeColor=inherit;" vertex="1" parent="cufo4_8W5I5X8OUttPSM-73">
                    <mxGeometry y="80" width="160" height="8" as="geometry"/>
                </mxCell>
                <mxCell id="cufo4_8W5I5X8OUttPSM-80" style="edgeStyle=none;html=1;endArrow=block;endFill=0;" edge="1" parent="1" source="IGVsEpAHjz5Vt69uYRel-27" target="IGVsEpAHjz5Vt69uYRel-44">
                    <mxGeometry relative="1" as="geometry"/>
                </mxCell>
            </root>
        </mxGraphModel>
    </diagram>
</mxfile>